<mxfile host="Electron" modified="2024-10-10T15:45:06.023Z" agent="Mozilla/5.0 (Windows NT 10.0; Win64; x64) AppleWebKit/537.36 (KHTML, like Gecko) draw.io/24.2.5 Chrome/120.0.6099.109 Electron/28.1.0 Safari/537.36" etag="BvKXfCZX-RtT8fnMguko" version="24.2.5" type="device">
  <diagram name="Задание 1. Планирование" id="WakHC8CvBUd0iaqc74J_">
    <mxGraphModel dx="2074" dy="1205" grid="1" gridSize="10" guides="1" tooltips="1" connect="1" arrows="1" fold="1" page="1" pageScale="1" pageWidth="827" pageHeight="1169" math="0" shadow="0">
      <root>
        <mxCell id="0" />
        <mxCell id="1" parent="0" />
        <mxCell id="PZMh904pfegGnTYNOVv_-3" value="" style="rounded=0;whiteSpace=wrap;html=1;" vertex="1" parent="1">
          <mxGeometry x="390" y="1520" width="170" height="160" as="geometry" />
        </mxCell>
        <mxCell id="ySxLsY-Zq91C41sMkoPi-2" value="" style="rounded=1;whiteSpace=wrap;html=1;dashed=1;" parent="1" vertex="1">
          <mxGeometry x="60" y="970" width="840" height="350" as="geometry" />
        </mxCell>
        <mxCell id="h91fdPF1W52MccK3j34s-41" value="" style="whiteSpace=wrap;html=1;aspect=fixed;" parent="1" vertex="1">
          <mxGeometry x="596" y="1021" width="269" height="269" as="geometry" />
        </mxCell>
        <mxCell id="h91fdPF1W52MccK3j34s-32" value="" style="whiteSpace=wrap;html=1;aspect=fixed;" parent="1" vertex="1">
          <mxGeometry x="90" y="1020" width="269" height="269" as="geometry" />
        </mxCell>
        <mxCell id="h91fdPF1W52MccK3j34s-1" value="MongoDB" style="shape=cylinder3;whiteSpace=wrap;html=1;boundedLbl=1;backgroundOutline=1;size=15;" parent="1" vertex="1">
          <mxGeometry x="240" y="30" width="60" height="80" as="geometry" />
        </mxCell>
        <mxCell id="h91fdPF1W52MccK3j34s-2" value="pymongo-api" style="rounded=1;whiteSpace=wrap;html=1;" parent="1" vertex="1">
          <mxGeometry x="40" y="40" width="120" height="60" as="geometry" />
        </mxCell>
        <mxCell id="h91fdPF1W52MccK3j34s-3" style="edgeStyle=orthogonalEdgeStyle;rounded=0;orthogonalLoop=1;jettySize=auto;html=1;exitX=1;exitY=0.5;exitDx=0;exitDy=0;entryX=0;entryY=0.5;entryDx=0;entryDy=0;entryPerimeter=0;" parent="1" source="h91fdPF1W52MccK3j34s-2" target="h91fdPF1W52MccK3j34s-1" edge="1">
          <mxGeometry relative="1" as="geometry" />
        </mxCell>
        <mxCell id="h91fdPF1W52MccK3j34s-4" value="&lt;font style=&quot;font-size: 18px;&quot;&gt;1&lt;/font&gt;.&amp;nbsp;&lt;span style=&quot;color: rgba(0, 0, 0, 0.85); font-family: &amp;quot;YS Text&amp;quot;, Arial, Helvetica, sans-serif; font-size: 18px; text-align: left; white-space-collapse: preserve-breaks; background-color: rgb(255, 255, 255);&quot;&gt;шардирование&amp;nbsp;&lt;/span&gt;" style="text;html=1;align=center;verticalAlign=middle;whiteSpace=wrap;rounded=0;" parent="1" vertex="1">
          <mxGeometry x="81" y="160" width="60" height="30" as="geometry" />
        </mxCell>
        <mxCell id="h91fdPF1W52MccK3j34s-7" style="edgeStyle=orthogonalEdgeStyle;rounded=0;orthogonalLoop=1;jettySize=auto;html=1;exitX=1;exitY=0.5;exitDx=0;exitDy=0;entryX=0.5;entryY=0;entryDx=0;entryDy=0;" parent="1" source="h91fdPF1W52MccK3j34s-5" target="h91fdPF1W52MccK3j34s-8" edge="1">
          <mxGeometry relative="1" as="geometry">
            <mxPoint x="200" y="230" as="targetPoint" />
          </mxGeometry>
        </mxCell>
        <mxCell id="h91fdPF1W52MccK3j34s-5" value="pymongo-api" style="rounded=1;whiteSpace=wrap;html=1;" parent="1" vertex="1">
          <mxGeometry x="40" y="200" width="120" height="60" as="geometry" />
        </mxCell>
        <mxCell id="h91fdPF1W52MccK3j34s-12" style="edgeStyle=orthogonalEdgeStyle;rounded=0;orthogonalLoop=1;jettySize=auto;html=1;exitX=0.5;exitY=1;exitDx=0;exitDy=0;" parent="1" source="h91fdPF1W52MccK3j34s-8" target="h91fdPF1W52MccK3j34s-10" edge="1">
          <mxGeometry relative="1" as="geometry" />
        </mxCell>
        <mxCell id="h91fdPF1W52MccK3j34s-13" style="edgeStyle=orthogonalEdgeStyle;rounded=0;orthogonalLoop=1;jettySize=auto;html=1;exitX=0.5;exitY=1;exitDx=0;exitDy=0;" parent="1" source="h91fdPF1W52MccK3j34s-8" target="h91fdPF1W52MccK3j34s-11" edge="1">
          <mxGeometry relative="1" as="geometry" />
        </mxCell>
        <mxCell id="h91fdPF1W52MccK3j34s-15" style="edgeStyle=orthogonalEdgeStyle;rounded=0;orthogonalLoop=1;jettySize=auto;html=1;exitX=1;exitY=0.5;exitDx=0;exitDy=0;" parent="1" source="h91fdPF1W52MccK3j34s-8" target="h91fdPF1W52MccK3j34s-9" edge="1">
          <mxGeometry relative="1" as="geometry" />
        </mxCell>
        <mxCell id="h91fdPF1W52MccK3j34s-8" value="&lt;span style=&quot;color: rgba(0, 0, 0, 0.85); font-family: Menlo, &amp;quot;Ubuntu Mono&amp;quot;, consolas, source-code-pro, monospace; font-size: 14px; text-align: start; white-space: pre; background-color: rgb(245, 245, 245);&quot;&gt;mongos_router&lt;/span&gt;" style="rounded=1;whiteSpace=wrap;html=1;fillColor=#e1d5e7;strokeColor=#9673a6;" parent="1" vertex="1">
          <mxGeometry x="200" y="320" width="120" height="60" as="geometry" />
        </mxCell>
        <mxCell id="h91fdPF1W52MccK3j34s-9" value="&lt;span style=&quot;color: rgba(0, 0, 0, 0.85); font-family: Menlo, &amp;quot;Ubuntu Mono&amp;quot;, consolas, source-code-pro, monospace; font-size: 14px; text-align: start; white-space: pre; background-color: rgb(245, 245, 245);&quot;&gt;configSrv&lt;/span&gt;" style="rounded=1;whiteSpace=wrap;html=1;fillColor=#e1d5e7;strokeColor=#9673a6;" parent="1" vertex="1">
          <mxGeometry x="434" y="320" width="120" height="60" as="geometry" />
        </mxCell>
        <mxCell id="h91fdPF1W52MccK3j34s-16" style="edgeStyle=orthogonalEdgeStyle;rounded=0;orthogonalLoop=1;jettySize=auto;html=1;exitX=0.5;exitY=1;exitDx=0;exitDy=0;exitPerimeter=0;entryX=0.75;entryY=1;entryDx=0;entryDy=0;" parent="1" source="h91fdPF1W52MccK3j34s-10" target="h91fdPF1W52MccK3j34s-9" edge="1">
          <mxGeometry relative="1" as="geometry">
            <Array as="points">
              <mxPoint x="210" y="560" />
              <mxPoint x="524" y="560" />
            </Array>
          </mxGeometry>
        </mxCell>
        <mxCell id="h91fdPF1W52MccK3j34s-10" value="MongoDB&lt;div&gt;&lt;span style=&quot;color: rgba(0, 0, 0, 0.85); font-family: Menlo, &amp;quot;Ubuntu Mono&amp;quot;, consolas, source-code-pro, monospace; font-size: 14px; text-align: start; white-space: pre; background-color: rgb(245, 245, 245);&quot;&gt;shard1&lt;/span&gt;&lt;br&gt;&lt;/div&gt;" style="shape=cylinder3;whiteSpace=wrap;html=1;boundedLbl=1;backgroundOutline=1;size=15;fillColor=#fff2cc;strokeColor=#d6b656;" parent="1" vertex="1">
          <mxGeometry x="180" y="430" width="60" height="80" as="geometry" />
        </mxCell>
        <mxCell id="h91fdPF1W52MccK3j34s-14" style="edgeStyle=orthogonalEdgeStyle;rounded=0;orthogonalLoop=1;jettySize=auto;html=1;exitX=0.5;exitY=1;exitDx=0;exitDy=0;exitPerimeter=0;entryX=0.5;entryY=1;entryDx=0;entryDy=0;" parent="1" source="h91fdPF1W52MccK3j34s-11" target="h91fdPF1W52MccK3j34s-9" edge="1">
          <mxGeometry relative="1" as="geometry" />
        </mxCell>
        <mxCell id="h91fdPF1W52MccK3j34s-11" value="MongoDB&lt;div&gt;&lt;span style=&quot;color: rgba(0, 0, 0, 0.85); font-family: Menlo, &amp;quot;Ubuntu Mono&amp;quot;, consolas, source-code-pro, monospace; font-size: 14px; text-align: start; white-space: pre; background-color: rgb(245, 245, 245);&quot;&gt;shard2&lt;/span&gt;&lt;br&gt;&lt;/div&gt;" style="shape=cylinder3;whiteSpace=wrap;html=1;boundedLbl=1;backgroundOutline=1;size=15;fillColor=#fff2cc;strokeColor=#d6b656;" parent="1" vertex="1">
          <mxGeometry x="290" y="430" width="60" height="80" as="geometry" />
        </mxCell>
        <mxCell id="h91fdPF1W52MccK3j34s-18" value="&lt;span style=&quot;font-size: 18px;&quot;&gt;2&lt;/span&gt;.&lt;span style=&quot;color: rgba(0, 0, 0, 0.85); font-family: &amp;quot;YS Text&amp;quot;, Arial, Helvetica, sans-serif; font-size: 18px; text-align: left; white-space-collapse: preserve-breaks; background-color: rgb(255, 255, 255);&quot;&gt;&amp;nbsp;репликация&amp;nbsp;&lt;/span&gt;" style="text;html=1;align=center;verticalAlign=middle;whiteSpace=wrap;rounded=0;" parent="1" vertex="1">
          <mxGeometry x="81" y="585" width="60" height="30" as="geometry" />
        </mxCell>
        <mxCell id="ySxLsY-Zq91C41sMkoPi-1" style="edgeStyle=orthogonalEdgeStyle;rounded=0;orthogonalLoop=1;jettySize=auto;html=1;exitX=1;exitY=0.5;exitDx=0;exitDy=0;entryX=0.5;entryY=0;entryDx=0;entryDy=0;" parent="1" source="h91fdPF1W52MccK3j34s-20" target="h91fdPF1W52MccK3j34s-26" edge="1">
          <mxGeometry relative="1" as="geometry" />
        </mxCell>
        <mxCell id="h91fdPF1W52MccK3j34s-20" value="pymongo-api" style="rounded=1;whiteSpace=wrap;html=1;" parent="1" vertex="1">
          <mxGeometry x="40" y="620" width="120" height="60" as="geometry" />
        </mxCell>
        <mxCell id="h91fdPF1W52MccK3j34s-25" style="edgeStyle=orthogonalEdgeStyle;rounded=0;orthogonalLoop=1;jettySize=auto;html=1;exitX=1;exitY=0.5;exitDx=0;exitDy=0;fillColor=#d80073;strokeColor=#A50040;" parent="1" source="h91fdPF1W52MccK3j34s-26" target="h91fdPF1W52MccK3j34s-27" edge="1">
          <mxGeometry relative="1" as="geometry" />
        </mxCell>
        <mxCell id="ySxLsY-Zq91C41sMkoPi-4" style="edgeStyle=orthogonalEdgeStyle;rounded=0;orthogonalLoop=1;jettySize=auto;html=1;exitX=0.5;exitY=1;exitDx=0;exitDy=0;entryX=0.5;entryY=0;entryDx=0;entryDy=0;" parent="1" source="h91fdPF1W52MccK3j34s-26" target="h91fdPF1W52MccK3j34s-41" edge="1">
          <mxGeometry relative="1" as="geometry" />
        </mxCell>
        <mxCell id="h91fdPF1W52MccK3j34s-26" value="&lt;span style=&quot;color: rgba(0, 0, 0, 0.85); font-family: Menlo, &amp;quot;Ubuntu Mono&amp;quot;, consolas, source-code-pro, monospace; font-size: 14px; text-align: start; white-space: pre; background-color: rgb(245, 245, 245);&quot;&gt;mongos_router&lt;/span&gt;" style="rounded=1;whiteSpace=wrap;html=1;fillColor=#e1d5e7;strokeColor=#9673a6;" parent="1" vertex="1">
          <mxGeometry x="200" y="740" width="120" height="60" as="geometry" />
        </mxCell>
        <mxCell id="h91fdPF1W52MccK3j34s-27" value="&lt;span style=&quot;color: rgba(0, 0, 0, 0.85); font-family: Menlo, &amp;quot;Ubuntu Mono&amp;quot;, consolas, source-code-pro, monospace; font-size: 14px; text-align: start; white-space: pre; background-color: rgb(245, 245, 245);&quot;&gt;configSrv&lt;/span&gt;" style="rounded=1;whiteSpace=wrap;html=1;fillColor=#e1d5e7;strokeColor=#9673a6;" parent="1" vertex="1">
          <mxGeometry x="950" y="740" width="120" height="60" as="geometry" />
        </mxCell>
        <mxCell id="h91fdPF1W52MccK3j34s-33" value="&lt;br&gt;&lt;br style=&quot;forced-color-adjust: none; color: rgb(0, 0, 0); font-family: Helvetica; font-size: 12px; font-style: normal; font-variant-ligatures: normal; font-variant-caps: normal; font-weight: 400; letter-spacing: normal; orphans: 2; text-align: center; text-indent: 0px; text-transform: none; widows: 2; word-spacing: 0px; -webkit-text-stroke-width: 0px; white-space: normal; background-color: rgb(251, 251, 251); text-decoration-thickness: initial; text-decoration-style: initial; text-decoration-color: initial;&quot;&gt;&lt;span style=&quot;forced-color-adjust: none; color: rgb(0, 0, 0); font-family: Helvetica; font-size: 12px; font-style: normal; font-variant-ligatures: normal; font-variant-caps: normal; font-weight: 400; letter-spacing: normal; orphans: 2; text-align: center; text-indent: 0px; text-transform: none; widows: 2; word-spacing: 0px; -webkit-text-stroke-width: 0px; white-space: normal; text-decoration-thickness: initial; text-decoration-style: initial; text-decoration-color: initial; background-color: rgb(251, 251, 251); float: none; display: inline !important;&quot;&gt;MongoDB&amp;nbsp;&lt;span style=&quot;background-color: rgb(245, 245, 245); color: rgba(0, 0, 0, 0.85); font-family: Menlo, &amp;quot;Ubuntu Mono&amp;quot;, consolas, source-code-pro, monospace; font-size: 14px; text-align: start; white-space: pre;&quot;&gt;shard1&lt;/span&gt;&lt;br&gt;&lt;/span&gt;&lt;br style=&quot;forced-color-adjust: none; color: rgb(0, 0, 0); font-family: Helvetica; font-size: 12px; font-style: normal; font-variant-ligatures: normal; font-variant-caps: normal; font-weight: 400; letter-spacing: normal; orphans: 2; text-align: center; text-indent: 0px; text-transform: none; widows: 2; word-spacing: 0px; -webkit-text-stroke-width: 0px; white-space: normal; background-color: rgb(251, 251, 251); text-decoration-thickness: initial; text-decoration-style: initial; text-decoration-color: initial;&quot;&gt;&lt;div&gt;&lt;br/&gt;&lt;/div&gt;" style="text;html=1;align=center;verticalAlign=middle;whiteSpace=wrap;rounded=0;" parent="1" vertex="1">
          <mxGeometry x="120" y="1020" width="60" height="30" as="geometry" />
        </mxCell>
        <mxCell id="h91fdPF1W52MccK3j34s-38" style="edgeStyle=orthogonalEdgeStyle;rounded=0;orthogonalLoop=1;jettySize=auto;html=1;exitX=0.855;exitY=1;exitDx=0;exitDy=-4.35;exitPerimeter=0;" parent="1" source="h91fdPF1W52MccK3j34s-34" target="h91fdPF1W52MccK3j34s-35" edge="1">
          <mxGeometry relative="1" as="geometry" />
        </mxCell>
        <mxCell id="h91fdPF1W52MccK3j34s-51" value="Replica" style="edgeLabel;html=1;align=center;verticalAlign=middle;resizable=0;points=[];" parent="h91fdPF1W52MccK3j34s-38" vertex="1" connectable="0">
          <mxGeometry x="-0.2628" relative="1" as="geometry">
            <mxPoint as="offset" />
          </mxGeometry>
        </mxCell>
        <mxCell id="h91fdPF1W52MccK3j34s-34" value="MongoDB&lt;div style=&quot;text-align: start;&quot;&gt;&lt;font face=&quot;Menlo, Ubuntu Mono, consolas, source-code-pro, monospace&quot; color=&quot;rgba(0, 0, 0, 0.85)&quot;&gt;&lt;span style=&quot;font-size: 14px; white-space: pre; background-color: rgb(245, 245, 245);&quot;&gt;master&lt;/span&gt;&lt;/font&gt;&lt;/div&gt;" style="shape=cylinder3;whiteSpace=wrap;html=1;boundedLbl=1;backgroundOutline=1;size=15;fillColor=#fff2cc;strokeColor=#d6b656;" parent="1" vertex="1">
          <mxGeometry x="194.5" y="1060" width="60" height="80" as="geometry" />
        </mxCell>
        <mxCell id="h91fdPF1W52MccK3j34s-35" value="MongoDB&lt;div style=&quot;text-align: start;&quot;&gt;&lt;font face=&quot;Menlo, Ubuntu Mono, consolas, source-code-pro, monospace&quot; color=&quot;rgba(0, 0, 0, 0.85)&quot;&gt;&lt;span style=&quot;font-size: 14px; white-space: pre; background-color: rgb(245, 245, 245);&quot;&gt;slave&lt;/span&gt;&lt;/font&gt;&lt;/div&gt;" style="shape=cylinder3;whiteSpace=wrap;html=1;boundedLbl=1;backgroundOutline=1;size=15;fillColor=#fff2cc;strokeColor=#d6b656;" parent="1" vertex="1">
          <mxGeometry x="287" y="1160" width="60" height="80" as="geometry" />
        </mxCell>
        <mxCell id="h91fdPF1W52MccK3j34s-36" value="MongoDB&lt;div style=&quot;text-align: start;&quot;&gt;&lt;font face=&quot;Menlo, Ubuntu Mono, consolas, source-code-pro, monospace&quot; color=&quot;rgba(0, 0, 0, 0.85)&quot;&gt;&lt;span style=&quot;font-size: 14px; white-space: pre; background-color: rgb(245, 245, 245);&quot;&gt;slave&lt;/span&gt;&lt;/font&gt;&lt;/div&gt;" style="shape=cylinder3;whiteSpace=wrap;html=1;boundedLbl=1;backgroundOutline=1;size=15;fillColor=#fff2cc;strokeColor=#d6b656;" parent="1" vertex="1">
          <mxGeometry x="102" y="1160" width="60" height="80" as="geometry" />
        </mxCell>
        <mxCell id="h91fdPF1W52MccK3j34s-39" style="edgeStyle=orthogonalEdgeStyle;rounded=0;orthogonalLoop=1;jettySize=auto;html=1;exitX=0.145;exitY=1;exitDx=0;exitDy=-4.35;exitPerimeter=0;entryX=0.5;entryY=0;entryDx=0;entryDy=0;entryPerimeter=0;" parent="1" source="h91fdPF1W52MccK3j34s-34" target="h91fdPF1W52MccK3j34s-36" edge="1">
          <mxGeometry relative="1" as="geometry" />
        </mxCell>
        <mxCell id="h91fdPF1W52MccK3j34s-50" value="Replica" style="edgeLabel;html=1;align=center;verticalAlign=middle;resizable=0;points=[];" parent="h91fdPF1W52MccK3j34s-39" vertex="1" connectable="0">
          <mxGeometry x="-0.1791" relative="1" as="geometry">
            <mxPoint as="offset" />
          </mxGeometry>
        </mxCell>
        <mxCell id="h91fdPF1W52MccK3j34s-42" value="&lt;br&gt;&lt;br style=&quot;forced-color-adjust: none; color: rgb(0, 0, 0); font-family: Helvetica; font-size: 12px; font-style: normal; font-variant-ligatures: normal; font-variant-caps: normal; font-weight: 400; letter-spacing: normal; orphans: 2; text-align: center; text-indent: 0px; text-transform: none; widows: 2; word-spacing: 0px; -webkit-text-stroke-width: 0px; white-space: normal; background-color: rgb(251, 251, 251); text-decoration-thickness: initial; text-decoration-style: initial; text-decoration-color: initial;&quot;&gt;&lt;span style=&quot;forced-color-adjust: none; color: rgb(0, 0, 0); font-family: Helvetica; font-size: 12px; font-style: normal; font-variant-ligatures: normal; font-variant-caps: normal; font-weight: 400; letter-spacing: normal; orphans: 2; text-align: center; text-indent: 0px; text-transform: none; widows: 2; word-spacing: 0px; -webkit-text-stroke-width: 0px; white-space: normal; text-decoration-thickness: initial; text-decoration-style: initial; text-decoration-color: initial; background-color: rgb(251, 251, 251); float: none; display: inline !important;&quot;&gt;MongoDB&amp;nbsp;&lt;span style=&quot;background-color: rgb(245, 245, 245); color: rgba(0, 0, 0, 0.85); font-family: Menlo, &amp;quot;Ubuntu Mono&amp;quot;, consolas, source-code-pro, monospace; font-size: 14px; text-align: start; white-space: pre;&quot;&gt;shard2&lt;/span&gt;&lt;br&gt;&lt;/span&gt;&lt;br style=&quot;forced-color-adjust: none; color: rgb(0, 0, 0); font-family: Helvetica; font-size: 12px; font-style: normal; font-variant-ligatures: normal; font-variant-caps: normal; font-weight: 400; letter-spacing: normal; orphans: 2; text-align: center; text-indent: 0px; text-transform: none; widows: 2; word-spacing: 0px; -webkit-text-stroke-width: 0px; white-space: normal; background-color: rgb(251, 251, 251); text-decoration-thickness: initial; text-decoration-style: initial; text-decoration-color: initial;&quot;&gt;&lt;div&gt;&lt;br&gt;&lt;/div&gt;" style="text;html=1;align=center;verticalAlign=middle;whiteSpace=wrap;rounded=0;" parent="1" vertex="1">
          <mxGeometry x="626" y="1021" width="60" height="30" as="geometry" />
        </mxCell>
        <mxCell id="h91fdPF1W52MccK3j34s-43" style="edgeStyle=orthogonalEdgeStyle;rounded=0;orthogonalLoop=1;jettySize=auto;html=1;exitX=0.855;exitY=1;exitDx=0;exitDy=-4.35;exitPerimeter=0;" parent="1" source="h91fdPF1W52MccK3j34s-44" target="h91fdPF1W52MccK3j34s-45" edge="1">
          <mxGeometry relative="1" as="geometry" />
        </mxCell>
        <mxCell id="h91fdPF1W52MccK3j34s-53" value="Replica" style="edgeLabel;html=1;align=center;verticalAlign=middle;resizable=0;points=[];" parent="h91fdPF1W52MccK3j34s-43" vertex="1" connectable="0">
          <mxGeometry x="-0.1162" relative="1" as="geometry">
            <mxPoint as="offset" />
          </mxGeometry>
        </mxCell>
        <mxCell id="h91fdPF1W52MccK3j34s-44" value="MongoDB&lt;div style=&quot;text-align: start;&quot;&gt;&lt;font face=&quot;Menlo, Ubuntu Mono, consolas, source-code-pro, monospace&quot; color=&quot;rgba(0, 0, 0, 0.85)&quot;&gt;&lt;span style=&quot;font-size: 14px; white-space: pre; background-color: rgb(245, 245, 245);&quot;&gt;master&lt;/span&gt;&lt;/font&gt;&lt;/div&gt;" style="shape=cylinder3;whiteSpace=wrap;html=1;boundedLbl=1;backgroundOutline=1;size=15;fillColor=#fff2cc;strokeColor=#d6b656;" parent="1" vertex="1">
          <mxGeometry x="700.5" y="1061" width="60" height="80" as="geometry" />
        </mxCell>
        <mxCell id="h91fdPF1W52MccK3j34s-45" value="MongoDB&lt;div style=&quot;text-align: start;&quot;&gt;&lt;font face=&quot;Menlo, Ubuntu Mono, consolas, source-code-pro, monospace&quot; color=&quot;rgba(0, 0, 0, 0.85)&quot;&gt;&lt;span style=&quot;font-size: 14px; white-space: pre; background-color: rgb(245, 245, 245);&quot;&gt;slave&lt;/span&gt;&lt;/font&gt;&lt;/div&gt;" style="shape=cylinder3;whiteSpace=wrap;html=1;boundedLbl=1;backgroundOutline=1;size=15;fillColor=#fff2cc;strokeColor=#d6b656;" parent="1" vertex="1">
          <mxGeometry x="793" y="1161" width="60" height="80" as="geometry" />
        </mxCell>
        <mxCell id="h91fdPF1W52MccK3j34s-46" value="MongoDB&lt;div style=&quot;text-align: start;&quot;&gt;&lt;font face=&quot;Menlo, Ubuntu Mono, consolas, source-code-pro, monospace&quot; color=&quot;rgba(0, 0, 0, 0.85)&quot;&gt;&lt;span style=&quot;font-size: 14px; white-space: pre; background-color: rgb(245, 245, 245);&quot;&gt;slave&lt;/span&gt;&lt;/font&gt;&lt;/div&gt;" style="shape=cylinder3;whiteSpace=wrap;html=1;boundedLbl=1;backgroundOutline=1;size=15;fillColor=#fff2cc;strokeColor=#d6b656;" parent="1" vertex="1">
          <mxGeometry x="608" y="1161" width="60" height="80" as="geometry" />
        </mxCell>
        <mxCell id="h91fdPF1W52MccK3j34s-47" style="edgeStyle=orthogonalEdgeStyle;rounded=0;orthogonalLoop=1;jettySize=auto;html=1;exitX=0.145;exitY=1;exitDx=0;exitDy=-4.35;exitPerimeter=0;entryX=0.5;entryY=0;entryDx=0;entryDy=0;entryPerimeter=0;" parent="1" source="h91fdPF1W52MccK3j34s-44" target="h91fdPF1W52MccK3j34s-46" edge="1">
          <mxGeometry relative="1" as="geometry" />
        </mxCell>
        <mxCell id="h91fdPF1W52MccK3j34s-52" value="Replica" style="edgeLabel;html=1;align=center;verticalAlign=middle;resizable=0;points=[];" parent="h91fdPF1W52MccK3j34s-47" vertex="1" connectable="0">
          <mxGeometry x="-0.1372" y="1" relative="1" as="geometry">
            <mxPoint as="offset" />
          </mxGeometry>
        </mxCell>
        <mxCell id="ySxLsY-Zq91C41sMkoPi-6" style="edgeStyle=orthogonalEdgeStyle;rounded=0;orthogonalLoop=1;jettySize=auto;html=1;exitX=0.5;exitY=1;exitDx=0;exitDy=0;entryX=0.5;entryY=0;entryDx=0;entryDy=0;entryPerimeter=0;" parent="1" source="h91fdPF1W52MccK3j34s-75" target="ySxLsY-Zq91C41sMkoPi-12" edge="1">
          <mxGeometry relative="1" as="geometry">
            <mxPoint x="240" y="1700" as="targetPoint" />
          </mxGeometry>
        </mxCell>
        <mxCell id="h91fdPF1W52MccK3j34s-75" value="pymongo-api" style="rounded=1;whiteSpace=wrap;html=1;" parent="1" vertex="1">
          <mxGeometry x="40" y="1450" width="120" height="60" as="geometry" />
        </mxCell>
        <mxCell id="h91fdPF1W52MccK3j34s-88" style="edgeStyle=orthogonalEdgeStyle;rounded=0;orthogonalLoop=1;jettySize=auto;html=1;exitX=0.5;exitY=1;exitDx=0;exitDy=0;exitPerimeter=0;entryX=0.75;entryY=1;entryDx=0;entryDy=0;fillColor=#d80073;strokeColor=#A50040;" parent="1" edge="1">
          <mxGeometry relative="1" as="geometry">
            <Array as="points">
              <mxPoint x="183" y="2320" />
              <mxPoint x="998" y="2320" />
            </Array>
            <mxPoint x="998" y="1760" as="targetPoint" />
          </mxGeometry>
        </mxCell>
        <mxCell id="h91fdPF1W52MccK3j34s-111" value="&lt;span style=&quot;font-size: 18px;&quot;&gt;3&lt;/span&gt;.&lt;span style=&quot;color: rgba(0, 0, 0, 0.85); font-family: &amp;quot;YS Text&amp;quot;, Arial, Helvetica, sans-serif; font-size: 18px; text-align: left; white-space-collapse: preserve-breaks; background-color: rgb(255, 255, 255);&quot;&gt;&amp;nbsp;кэширование&lt;/span&gt;" style="text;html=1;align=center;verticalAlign=middle;whiteSpace=wrap;rounded=0;" parent="1" vertex="1">
          <mxGeometry x="70" y="1400" width="60" height="30" as="geometry" />
        </mxCell>
        <mxCell id="h91fdPF1W52MccK3j34s-116" value="&lt;span style=&quot;color: rgba(0, 0, 0, 0.85); font-family: Menlo, &amp;quot;Ubuntu Mono&amp;quot;, consolas, source-code-pro, monospace; font-size: 14px; text-align: start; white-space: pre; background-color: rgb(245, 245, 245);&quot;&gt;redis01&lt;/span&gt;&lt;div&gt;&lt;span style=&quot;color: rgba(0, 0, 0, 0.85); font-family: Menlo, &amp;quot;Ubuntu Mono&amp;quot;, consolas, source-code-pro, monospace; font-size: 14px; text-align: start; white-space: pre; background-color: rgb(245, 245, 245);&quot;&gt;master&lt;/span&gt;&lt;/div&gt;" style="shape=cylinder3;whiteSpace=wrap;html=1;boundedLbl=1;backgroundOutline=1;size=15;fillColor=#b1ddf0;strokeColor=#10739e;" parent="1" vertex="1">
          <mxGeometry x="400" y="1555" width="60" height="80" as="geometry" />
        </mxCell>
        <mxCell id="h91fdPF1W52MccK3j34s-117" style="edgeStyle=orthogonalEdgeStyle;rounded=0;orthogonalLoop=1;jettySize=auto;html=1;exitX=1;exitY=0.5;exitDx=0;exitDy=0;entryX=0.5;entryY=0;entryDx=0;entryDy=0;startArrow=none;startFill=0;fillColor=#1ba1e2;strokeColor=#006EAF;" parent="1" source="h91fdPF1W52MccK3j34s-75" target="PZMh904pfegGnTYNOVv_-3" edge="1">
          <mxGeometry relative="1" as="geometry">
            <mxPoint x="360" y="1480" as="sourcePoint" />
          </mxGeometry>
        </mxCell>
        <mxCell id="ySxLsY-Zq91C41sMkoPi-3" style="edgeStyle=orthogonalEdgeStyle;rounded=0;orthogonalLoop=1;jettySize=auto;html=1;exitX=0.5;exitY=1;exitDx=0;exitDy=0;entryX=0.466;entryY=0.002;entryDx=0;entryDy=0;entryPerimeter=0;" parent="1" source="h91fdPF1W52MccK3j34s-26" target="h91fdPF1W52MccK3j34s-32" edge="1">
          <mxGeometry relative="1" as="geometry" />
        </mxCell>
        <mxCell id="ySxLsY-Zq91C41sMkoPi-5" style="edgeStyle=orthogonalEdgeStyle;rounded=0;orthogonalLoop=1;jettySize=auto;html=1;exitX=1;exitY=0.457;exitDx=0;exitDy=0;fillColor=#d80073;strokeColor=#A50040;exitPerimeter=0;entryX=0.5;entryY=1;entryDx=0;entryDy=0;" parent="1" source="ySxLsY-Zq91C41sMkoPi-2" target="h91fdPF1W52MccK3j34s-27" edge="1">
          <mxGeometry relative="1" as="geometry">
            <mxPoint x="926" y="1130" as="sourcePoint" />
            <mxPoint x="1556" y="1130" as="targetPoint" />
          </mxGeometry>
        </mxCell>
        <mxCell id="ySxLsY-Zq91C41sMkoPi-7" value="" style="rounded=1;whiteSpace=wrap;html=1;dashed=1;" parent="1" vertex="1">
          <mxGeometry x="40" y="1940" width="840" height="350" as="geometry" />
        </mxCell>
        <mxCell id="ySxLsY-Zq91C41sMkoPi-8" value="" style="whiteSpace=wrap;html=1;aspect=fixed;" parent="1" vertex="1">
          <mxGeometry x="576" y="1991" width="269" height="269" as="geometry" />
        </mxCell>
        <mxCell id="ySxLsY-Zq91C41sMkoPi-9" value="" style="whiteSpace=wrap;html=1;aspect=fixed;" parent="1" vertex="1">
          <mxGeometry x="70" y="1990" width="269" height="269" as="geometry" />
        </mxCell>
        <mxCell id="ySxLsY-Zq91C41sMkoPi-10" style="edgeStyle=orthogonalEdgeStyle;rounded=0;orthogonalLoop=1;jettySize=auto;html=1;exitX=1;exitY=0.5;exitDx=0;exitDy=0;fillColor=#d80073;strokeColor=#A50040;" parent="1" source="ySxLsY-Zq91C41sMkoPi-12" target="ySxLsY-Zq91C41sMkoPi-13" edge="1">
          <mxGeometry relative="1" as="geometry" />
        </mxCell>
        <mxCell id="ySxLsY-Zq91C41sMkoPi-11" style="edgeStyle=orthogonalEdgeStyle;rounded=0;orthogonalLoop=1;jettySize=auto;html=1;exitX=0.5;exitY=1;exitDx=0;exitDy=0;entryX=0.5;entryY=0;entryDx=0;entryDy=0;" parent="1" source="ySxLsY-Zq91C41sMkoPi-12" target="ySxLsY-Zq91C41sMkoPi-8" edge="1">
          <mxGeometry relative="1" as="geometry" />
        </mxCell>
        <mxCell id="ySxLsY-Zq91C41sMkoPi-12" value="&lt;span style=&quot;color: rgba(0, 0, 0, 0.85); font-family: Menlo, &amp;quot;Ubuntu Mono&amp;quot;, consolas, source-code-pro, monospace; font-size: 14px; text-align: start; white-space: pre; background-color: rgb(245, 245, 245);&quot;&gt;mongo-router&lt;/span&gt;" style="rounded=1;whiteSpace=wrap;html=1;fillColor=#e1d5e7;strokeColor=#9673a6;" parent="1" vertex="1">
          <mxGeometry x="180" y="1710" width="120" height="60" as="geometry" />
        </mxCell>
        <mxCell id="ySxLsY-Zq91C41sMkoPi-13" value="&lt;span style=&quot;color: rgba(0, 0, 0, 0.85); font-family: Menlo, &amp;quot;Ubuntu Mono&amp;quot;, consolas, source-code-pro, monospace; font-size: 14px; text-align: start; white-space: pre; background-color: rgb(245, 245, 245);&quot;&gt;config-&lt;/span&gt;&lt;span style=&quot;background-color: rgb(245, 245, 245); color: rgba(0, 0, 0, 0.85); font-family: Menlo, &amp;quot;Ubuntu Mono&amp;quot;, consolas, source-code-pro, monospace; font-size: 14px; text-align: start; white-space: pre;&quot;&gt;srv&lt;/span&gt;" style="rounded=1;whiteSpace=wrap;html=1;fillColor=#e1d5e7;strokeColor=#9673a6;" parent="1" vertex="1">
          <mxGeometry x="930" y="1710" width="120" height="60" as="geometry" />
        </mxCell>
        <mxCell id="ySxLsY-Zq91C41sMkoPi-14" value="&lt;br&gt;&lt;br style=&quot;forced-color-adjust: none; color: rgb(0, 0, 0); font-family: Helvetica; font-size: 12px; font-style: normal; font-variant-ligatures: normal; font-variant-caps: normal; font-weight: 400; letter-spacing: normal; orphans: 2; text-align: center; text-indent: 0px; text-transform: none; widows: 2; word-spacing: 0px; -webkit-text-stroke-width: 0px; white-space: normal; background-color: rgb(251, 251, 251); text-decoration-thickness: initial; text-decoration-style: initial; text-decoration-color: initial;&quot;&gt;&lt;span style=&quot;forced-color-adjust: none; color: rgb(0, 0, 0); font-family: Helvetica; font-size: 12px; font-style: normal; font-variant-ligatures: normal; font-variant-caps: normal; font-weight: 400; letter-spacing: normal; orphans: 2; text-align: center; text-indent: 0px; text-transform: none; widows: 2; word-spacing: 0px; -webkit-text-stroke-width: 0px; white-space: normal; text-decoration-thickness: initial; text-decoration-style: initial; text-decoration-color: initial; background-color: rgb(251, 251, 251); float: none; display: inline !important;&quot;&gt;MongoDB&amp;nbsp;&lt;span style=&quot;background-color: rgb(245, 245, 245); color: rgba(0, 0, 0, 0.85); font-family: Menlo, &amp;quot;Ubuntu Mono&amp;quot;, consolas, source-code-pro, monospace; font-size: 14px; text-align: start; white-space: pre;&quot;&gt;shard01&lt;/span&gt;&lt;br&gt;&lt;/span&gt;&lt;br style=&quot;forced-color-adjust: none; color: rgb(0, 0, 0); font-family: Helvetica; font-size: 12px; font-style: normal; font-variant-ligatures: normal; font-variant-caps: normal; font-weight: 400; letter-spacing: normal; orphans: 2; text-align: center; text-indent: 0px; text-transform: none; widows: 2; word-spacing: 0px; -webkit-text-stroke-width: 0px; white-space: normal; background-color: rgb(251, 251, 251); text-decoration-thickness: initial; text-decoration-style: initial; text-decoration-color: initial;&quot;&gt;&lt;div&gt;&lt;br&gt;&lt;/div&gt;" style="text;html=1;align=center;verticalAlign=middle;whiteSpace=wrap;rounded=0;" parent="1" vertex="1">
          <mxGeometry x="100" y="1990" width="60" height="30" as="geometry" />
        </mxCell>
        <mxCell id="ySxLsY-Zq91C41sMkoPi-15" style="edgeStyle=orthogonalEdgeStyle;rounded=0;orthogonalLoop=1;jettySize=auto;html=1;exitX=0.855;exitY=1;exitDx=0;exitDy=-4.35;exitPerimeter=0;" parent="1" source="ySxLsY-Zq91C41sMkoPi-17" target="ySxLsY-Zq91C41sMkoPi-18" edge="1">
          <mxGeometry relative="1" as="geometry" />
        </mxCell>
        <mxCell id="ySxLsY-Zq91C41sMkoPi-16" value="Replica" style="edgeLabel;html=1;align=center;verticalAlign=middle;resizable=0;points=[];" parent="ySxLsY-Zq91C41sMkoPi-15" vertex="1" connectable="0">
          <mxGeometry x="-0.2628" relative="1" as="geometry">
            <mxPoint as="offset" />
          </mxGeometry>
        </mxCell>
        <mxCell id="ySxLsY-Zq91C41sMkoPi-17" value="MongoDB&lt;div style=&quot;text-align: start;&quot;&gt;&lt;font face=&quot;Menlo, Ubuntu Mono, consolas, source-code-pro, monospace&quot; color=&quot;rgba(0, 0, 0, 0.85)&quot;&gt;&lt;span style=&quot;font-size: 14px; white-space: pre; background-color: rgb(245, 245, 245);&quot;&gt;master&lt;/span&gt;&lt;/font&gt;&lt;/div&gt;" style="shape=cylinder3;whiteSpace=wrap;html=1;boundedLbl=1;backgroundOutline=1;size=15;fillColor=#fff2cc;strokeColor=#d6b656;" parent="1" vertex="1">
          <mxGeometry x="174.5" y="2030" width="60" height="80" as="geometry" />
        </mxCell>
        <mxCell id="ySxLsY-Zq91C41sMkoPi-18" value="MongoDB&lt;div style=&quot;text-align: start;&quot;&gt;&lt;font face=&quot;Menlo, Ubuntu Mono, consolas, source-code-pro, monospace&quot; color=&quot;rgba(0, 0, 0, 0.85)&quot;&gt;&lt;span style=&quot;font-size: 14px; white-space: pre; background-color: rgb(245, 245, 245);&quot;&gt;slave&lt;/span&gt;&lt;/font&gt;&lt;/div&gt;" style="shape=cylinder3;whiteSpace=wrap;html=1;boundedLbl=1;backgroundOutline=1;size=15;fillColor=#fff2cc;strokeColor=#d6b656;" parent="1" vertex="1">
          <mxGeometry x="267" y="2130" width="60" height="80" as="geometry" />
        </mxCell>
        <mxCell id="ySxLsY-Zq91C41sMkoPi-19" value="MongoDB&lt;div style=&quot;text-align: start;&quot;&gt;&lt;font face=&quot;Menlo, Ubuntu Mono, consolas, source-code-pro, monospace&quot; color=&quot;rgba(0, 0, 0, 0.85)&quot;&gt;&lt;span style=&quot;font-size: 14px; white-space: pre; background-color: rgb(245, 245, 245);&quot;&gt;slave&lt;/span&gt;&lt;/font&gt;&lt;/div&gt;" style="shape=cylinder3;whiteSpace=wrap;html=1;boundedLbl=1;backgroundOutline=1;size=15;fillColor=#fff2cc;strokeColor=#d6b656;" parent="1" vertex="1">
          <mxGeometry x="82" y="2130" width="60" height="80" as="geometry" />
        </mxCell>
        <mxCell id="ySxLsY-Zq91C41sMkoPi-20" style="edgeStyle=orthogonalEdgeStyle;rounded=0;orthogonalLoop=1;jettySize=auto;html=1;exitX=0.145;exitY=1;exitDx=0;exitDy=-4.35;exitPerimeter=0;entryX=0.5;entryY=0;entryDx=0;entryDy=0;entryPerimeter=0;" parent="1" source="ySxLsY-Zq91C41sMkoPi-17" target="ySxLsY-Zq91C41sMkoPi-19" edge="1">
          <mxGeometry relative="1" as="geometry" />
        </mxCell>
        <mxCell id="ySxLsY-Zq91C41sMkoPi-21" value="Replica" style="edgeLabel;html=1;align=center;verticalAlign=middle;resizable=0;points=[];" parent="ySxLsY-Zq91C41sMkoPi-20" vertex="1" connectable="0">
          <mxGeometry x="-0.1791" relative="1" as="geometry">
            <mxPoint as="offset" />
          </mxGeometry>
        </mxCell>
        <mxCell id="ySxLsY-Zq91C41sMkoPi-22" value="&lt;br&gt;&lt;br style=&quot;forced-color-adjust: none; color: rgb(0, 0, 0); font-family: Helvetica; font-size: 12px; font-style: normal; font-variant-ligatures: normal; font-variant-caps: normal; font-weight: 400; letter-spacing: normal; orphans: 2; text-align: center; text-indent: 0px; text-transform: none; widows: 2; word-spacing: 0px; -webkit-text-stroke-width: 0px; white-space: normal; background-color: rgb(251, 251, 251); text-decoration-thickness: initial; text-decoration-style: initial; text-decoration-color: initial;&quot;&gt;&lt;span style=&quot;forced-color-adjust: none; color: rgb(0, 0, 0); font-family: Helvetica; font-size: 12px; font-style: normal; font-variant-ligatures: normal; font-variant-caps: normal; font-weight: 400; letter-spacing: normal; orphans: 2; text-align: center; text-indent: 0px; text-transform: none; widows: 2; word-spacing: 0px; -webkit-text-stroke-width: 0px; white-space: normal; text-decoration-thickness: initial; text-decoration-style: initial; text-decoration-color: initial; background-color: rgb(251, 251, 251); float: none; display: inline !important;&quot;&gt;MongoDB&amp;nbsp;&lt;span style=&quot;background-color: rgb(245, 245, 245); color: rgba(0, 0, 0, 0.85); font-family: Menlo, &amp;quot;Ubuntu Mono&amp;quot;, consolas, source-code-pro, monospace; font-size: 14px; text-align: start; white-space: pre;&quot;&gt;shard02&lt;/span&gt;&lt;br&gt;&lt;/span&gt;&lt;br style=&quot;forced-color-adjust: none; color: rgb(0, 0, 0); font-family: Helvetica; font-size: 12px; font-style: normal; font-variant-ligatures: normal; font-variant-caps: normal; font-weight: 400; letter-spacing: normal; orphans: 2; text-align: center; text-indent: 0px; text-transform: none; widows: 2; word-spacing: 0px; -webkit-text-stroke-width: 0px; white-space: normal; background-color: rgb(251, 251, 251); text-decoration-thickness: initial; text-decoration-style: initial; text-decoration-color: initial;&quot;&gt;&lt;div&gt;&lt;br&gt;&lt;/div&gt;" style="text;html=1;align=center;verticalAlign=middle;whiteSpace=wrap;rounded=0;" parent="1" vertex="1">
          <mxGeometry x="606" y="1991" width="60" height="30" as="geometry" />
        </mxCell>
        <mxCell id="ySxLsY-Zq91C41sMkoPi-23" style="edgeStyle=orthogonalEdgeStyle;rounded=0;orthogonalLoop=1;jettySize=auto;html=1;exitX=0.855;exitY=1;exitDx=0;exitDy=-4.35;exitPerimeter=0;" parent="1" source="ySxLsY-Zq91C41sMkoPi-25" target="ySxLsY-Zq91C41sMkoPi-26" edge="1">
          <mxGeometry relative="1" as="geometry" />
        </mxCell>
        <mxCell id="ySxLsY-Zq91C41sMkoPi-24" value="Replica" style="edgeLabel;html=1;align=center;verticalAlign=middle;resizable=0;points=[];" parent="ySxLsY-Zq91C41sMkoPi-23" vertex="1" connectable="0">
          <mxGeometry x="-0.1162" relative="1" as="geometry">
            <mxPoint as="offset" />
          </mxGeometry>
        </mxCell>
        <mxCell id="ySxLsY-Zq91C41sMkoPi-25" value="MongoDB&lt;div style=&quot;text-align: start;&quot;&gt;&lt;font face=&quot;Menlo, Ubuntu Mono, consolas, source-code-pro, monospace&quot; color=&quot;rgba(0, 0, 0, 0.85)&quot;&gt;&lt;span style=&quot;font-size: 14px; white-space: pre; background-color: rgb(245, 245, 245);&quot;&gt;master&lt;/span&gt;&lt;/font&gt;&lt;/div&gt;" style="shape=cylinder3;whiteSpace=wrap;html=1;boundedLbl=1;backgroundOutline=1;size=15;fillColor=#fff2cc;strokeColor=#d6b656;" parent="1" vertex="1">
          <mxGeometry x="680.5" y="2031" width="60" height="80" as="geometry" />
        </mxCell>
        <mxCell id="ySxLsY-Zq91C41sMkoPi-26" value="MongoDB&lt;div style=&quot;text-align: start;&quot;&gt;&lt;font face=&quot;Menlo, Ubuntu Mono, consolas, source-code-pro, monospace&quot; color=&quot;rgba(0, 0, 0, 0.85)&quot;&gt;&lt;span style=&quot;font-size: 14px; white-space: pre; background-color: rgb(245, 245, 245);&quot;&gt;slave&lt;/span&gt;&lt;/font&gt;&lt;/div&gt;" style="shape=cylinder3;whiteSpace=wrap;html=1;boundedLbl=1;backgroundOutline=1;size=15;fillColor=#fff2cc;strokeColor=#d6b656;" parent="1" vertex="1">
          <mxGeometry x="773" y="2131" width="60" height="80" as="geometry" />
        </mxCell>
        <mxCell id="ySxLsY-Zq91C41sMkoPi-27" value="MongoDB&lt;div style=&quot;text-align: start;&quot;&gt;&lt;font face=&quot;Menlo, Ubuntu Mono, consolas, source-code-pro, monospace&quot; color=&quot;rgba(0, 0, 0, 0.85)&quot;&gt;&lt;span style=&quot;font-size: 14px; white-space: pre; background-color: rgb(245, 245, 245);&quot;&gt;slave&lt;/span&gt;&lt;/font&gt;&lt;/div&gt;" style="shape=cylinder3;whiteSpace=wrap;html=1;boundedLbl=1;backgroundOutline=1;size=15;fillColor=#fff2cc;strokeColor=#d6b656;" parent="1" vertex="1">
          <mxGeometry x="588" y="2131" width="60" height="80" as="geometry" />
        </mxCell>
        <mxCell id="ySxLsY-Zq91C41sMkoPi-28" style="edgeStyle=orthogonalEdgeStyle;rounded=0;orthogonalLoop=1;jettySize=auto;html=1;exitX=0.145;exitY=1;exitDx=0;exitDy=-4.35;exitPerimeter=0;entryX=0.5;entryY=0;entryDx=0;entryDy=0;entryPerimeter=0;" parent="1" source="ySxLsY-Zq91C41sMkoPi-25" target="ySxLsY-Zq91C41sMkoPi-27" edge="1">
          <mxGeometry relative="1" as="geometry" />
        </mxCell>
        <mxCell id="ySxLsY-Zq91C41sMkoPi-29" value="Replica" style="edgeLabel;html=1;align=center;verticalAlign=middle;resizable=0;points=[];" parent="ySxLsY-Zq91C41sMkoPi-28" vertex="1" connectable="0">
          <mxGeometry x="-0.1372" y="1" relative="1" as="geometry">
            <mxPoint as="offset" />
          </mxGeometry>
        </mxCell>
        <mxCell id="ySxLsY-Zq91C41sMkoPi-30" style="edgeStyle=orthogonalEdgeStyle;rounded=0;orthogonalLoop=1;jettySize=auto;html=1;exitX=0.5;exitY=1;exitDx=0;exitDy=0;entryX=0.466;entryY=0.002;entryDx=0;entryDy=0;entryPerimeter=0;" parent="1" source="ySxLsY-Zq91C41sMkoPi-12" target="ySxLsY-Zq91C41sMkoPi-9" edge="1">
          <mxGeometry relative="1" as="geometry" />
        </mxCell>
        <mxCell id="ySxLsY-Zq91C41sMkoPi-31" style="edgeStyle=orthogonalEdgeStyle;rounded=0;orthogonalLoop=1;jettySize=auto;html=1;exitX=1;exitY=0.457;exitDx=0;exitDy=0;fillColor=#d80073;strokeColor=#A50040;exitPerimeter=0;entryX=0.5;entryY=1;entryDx=0;entryDy=0;" parent="1" source="ySxLsY-Zq91C41sMkoPi-7" target="ySxLsY-Zq91C41sMkoPi-13" edge="1">
          <mxGeometry relative="1" as="geometry">
            <mxPoint x="906" y="2100" as="sourcePoint" />
            <mxPoint x="1536" y="2100" as="targetPoint" />
          </mxGeometry>
        </mxCell>
        <mxCell id="PZMh904pfegGnTYNOVv_-5" value="&lt;span style=&quot;color: rgba(0, 0, 0, 0.85); font-family: Menlo, &amp;quot;Ubuntu Mono&amp;quot;, consolas, source-code-pro, monospace; font-size: 14px; text-align: start; white-space: pre; background-color: rgb(245, 245, 245);&quot;&gt;redis01&lt;/span&gt;&lt;div&gt;&lt;span style=&quot;color: rgba(0, 0, 0, 0.85); font-family: Menlo, &amp;quot;Ubuntu Mono&amp;quot;, consolas, source-code-pro, monospace; font-size: 14px; text-align: start; white-space: pre; background-color: rgb(245, 245, 245);&quot;&gt;slave&lt;/span&gt;&lt;/div&gt;" style="shape=cylinder3;whiteSpace=wrap;html=1;boundedLbl=1;backgroundOutline=1;size=15;fillColor=#f5f5f5;strokeColor=#666666;fontColor=#333333;" vertex="1" parent="1">
          <mxGeometry x="480" y="1555" width="60" height="80" as="geometry" />
        </mxCell>
        <mxCell id="PZMh904pfegGnTYNOVv_-12" style="edgeStyle=orthogonalEdgeStyle;rounded=0;orthogonalLoop=1;jettySize=auto;html=1;exitX=0.5;exitY=1;exitDx=0;exitDy=0;exitPerimeter=0;entryX=0.5;entryY=1;entryDx=0;entryDy=0;entryPerimeter=0;startArrow=classic;startFill=1;" edge="1" parent="1" source="h91fdPF1W52MccK3j34s-116" target="PZMh904pfegGnTYNOVv_-5">
          <mxGeometry relative="1" as="geometry" />
        </mxCell>
        <mxCell id="PZMh904pfegGnTYNOVv_-16" value="Replica" style="edgeLabel;html=1;align=center;verticalAlign=middle;resizable=0;points=[];" vertex="1" connectable="0" parent="PZMh904pfegGnTYNOVv_-12">
          <mxGeometry x="0.0444" y="-2" relative="1" as="geometry">
            <mxPoint as="offset" />
          </mxGeometry>
        </mxCell>
        <mxCell id="PZMh904pfegGnTYNOVv_-15" value="Redis" style="text;html=1;align=center;verticalAlign=middle;whiteSpace=wrap;rounded=0;" vertex="1" parent="1">
          <mxGeometry x="400" y="1525" width="60" height="30" as="geometry" />
        </mxCell>
      </root>
    </mxGraphModel>
  </diagram>
</mxfile>
